<svg xmlns="http://www.w3.org/2000/svg" width="16" height="20" viewBox="0 0 16 20">
  <path id="Icon_awesome-blind" data-name="Icon awesome-blind" d="M15.84,19.955a.346.346,0,0,1-.458-.1L10.16,11.786a1.329,1.329,0,0,0,.54-.371l5.252,8.11a.3.3,0,0,1-.112.429ZM5.95,12.279l-1.356,3.5,1.5,3.449a1.365,1.365,0,0,0,1.739.684,1.224,1.224,0,0,0,.729-1.63ZM4,3.437A1.779,1.779,0,0,0,5.833,1.719,1.779,1.779,0,0,0,4,0,1.779,1.779,0,0,0,2.167,1.719,1.779,1.779,0,0,0,4,3.437Zm6.452,6.607-5-5.937a1.024,1.024,0,0,0-.785-.356H3.333a1.022,1.022,0,0,0-.789.361L0,7.178v3.738a.988.988,0,0,0,1.019.958A.969.969,0,0,0,2,10.937V7.822l.667-.8v5.5L.414,18.322a1.23,1.23,0,0,0,.8,1.6,1.359,1.359,0,0,0,1.709-.748L5.667,12.1V7.908L4.358,6.353a.15.15,0,0,1,.027-.22.174.174,0,0,1,.234.025l4.262,5.048a1.04,1.04,0,0,0,1.4.155.9.9,0,0,0,.165-1.317Z"/>
</svg>
