<svg xmlns="http://www.w3.org/2000/svg" width="17" height="22.214" viewBox="0 0 17 22.214">
  <path id="Icon_weather-raindrop" data-name="Icon weather-raindrop" d="M11.772,21.276a7.8,7.8,0,0,0,1.074,4.007,8.233,8.233,0,0,0,2.915,2.962,7.61,7.61,0,0,0,3.973,1.107,7.757,7.757,0,0,0,4-1.107,8.2,8.2,0,0,0,2.945-2.962,7.855,7.855,0,0,0,1.089-4.007,8.927,8.927,0,0,0-.8-3.336,19.443,19.443,0,0,0-1.933-3.586c-.675-.889-1.473-1.871-2.393-2.931s-2.531-2.7-2.9-3.071l-1.964,2.011a24.463,24.463,0,0,0-5.032,7.218A8.769,8.769,0,0,0,11.772,21.276Z" transform="translate(-11.272 -7.638)" fill="#b1b1b1" stroke="#000" stroke-width="1"/>
</svg>
